#!OML:ASF F:\VICON\USERDATA\INSTALL\rory3\rory3.ASF
:FULLY-SPECIFIED
:DEGREES
3648
root 1.24029 17.0094 -2.73826 -726.724 -36.3841 -721.342
lowerback 9.6452 -3.84361 -9.50183
upperback 3.83094 -6.07451 -3.04313
thorax -0.722592 -3.13002 2.70104
lowerneck -7.60483 -6.97551 -11.9521
upperneck 15.9438 -9.27115 7.76755
head 7.04639 -4.634 3.63567
rclavicle 7.01213e-014 1.27222e-014
rhumerus 220.635 -162.748 -222.48
rradius 29.5857
rwrist 38.0353
rhand -42.8455 -3.96069
rfingers 7.12502
rthumb -15.7095 -33.343
lclavicle 7.01213e-014 1.27222e-014
lhumerus 71.9074 -33.2144 44.3339
lradius 42.8547
lwrist -18.7029
lhand -44.4359 31.7862
lfingers 7.12502
lthumb -17.2408 61.0414
rfemur -17.9653 29.8604 -4.68804
rtibia 24.4449
rfoot -3.10721 -23.8273
rtoes -19.2337
lfemur -3.31993 14.072 -7.07726
ltibia 51.6599
lfoot -31.7877 10.1423
ltoes -17.4901
3649
root 1.32674 17.0551 -2.73021 -726.416 -36.6776 -721.367
lowerback 9.48402 -3.7672 -9.55469
upperback 3.68905 -5.96516 -2.96188
thorax -0.78088 -3.06891 2.7997
lowerneck -7.93383 -6.8139 -11.678
upperneck 16.0572 -9.05265 7.7467
head 7.10271 -4.5071 3.59877
rclavicle -8.34896e-015 3.02153e-014
rhumerus 219.87 -163.315 -221.79
rradius 29.7382
rwrist 37.8973
rhand -42.9615 -4.28322
rfingers 7.12502
rthumb -15.8213 -33.6567
lclavicle -8.34896e-015 3.02153e-014
lhumerus 71.5403 -33.537 44.4108
lradius 42.9461
lwrist -19.2236
lhand -44.2 31.3537
lfingers 7.12502
lthumb -17.0137 60.6286
rfemur -18.0352 28.9463 -4.30198
rtibia 24.2536
rfoot -2.59777 -25.1619
rtoes -17.1046
lfemur -3.59614 14.1883 -7.55405
ltibia 51.3361
lfoot -31.6989 10.5515
ltoes -17.6871
3650
root 1.41121 17.0969 -2.72385 -726.022 -36.8975 -721.54
lowerback 9.2888 -3.69732 -9.40141
upperback 3.6206 -5.83825 -2.91569
thorax -0.771439 -3.0026 2.74312
lowerneck -8.21315 -6.66582 -11.4381
upperneck 16.0321 -8.89344 7.98491
head 7.12522 -4.39121 3.64804
rclavicle -5.03919e-014 1.59028e-014
rhumerus 219.115 -163.666 -221.23
rradius 29.8862
rwrist 37.7417
rhand -43.0793 -4.87689
rfingers 7.12502
rthumb -15.9347 -34.2414
lclavicle -5.03919e-014 1.59028e-014
lhumerus 71.342 -33.9022 44.2805
lradius 43.2131
lwrist -19.671
lhand -44.2138 30.6946
lfingers 7.12502
lthumb -17.027 59.9684
rfemur -18.1039 27.9829 -3.77647
rtibia 24.2256
rfoot -2.7953 -26.2667
rtoes -14.3106
lfemur -3.93671 14.107 -7.93995
ltibia 51.0452
lfoot -31.5628 11.0729
ltoes -17.7403
3651
root 1.49078 17.1395 -2.71743 -725.674 -37.0952 -721.698
lowerback 9.0548 -3.64208 -9.21131
upperback 3.61953 -5.72175 -2.95819
thorax -0.681325 -2.94648 2.56935
lowerneck -8.46286 -6.53501 -11.1642
upperneck 15.8769 -8.78271 8.35214
head 7.10964 -4.2868 3.73004
rclavicle -8.05078e-015 3.65764e-014
rhumerus 218.376 -163.888 -220.889
rradius 30.0776
rwrist 37.6411
rhand -43.1712 -5.18597
rfingers 7.12502
rthumb -16.0232 -34.5434
lclavicle -8.05078e-015 3.65764e-014
lhumerus 71.1761 -34.1715 44.072
lradius 43.5171
lwrist -20.1196
lhand -44.1242 29.9893
lfingers 7.12502
lthumb -16.9407 59.2705
rfemur -18.1056 27.1345 -3.26334
rtibia 24.2936
rfoot -3.3864 -27.1696
rtoes -12.6662
lfemur -4.22818 13.9677 -8.3254
ltibia 50.7689
lfoot -31.5022 11.5923
ltoes -16.7857
3652
root 1.56718 17.1779 -2.71265 -725.474 -37.317 -721.741
lowerback 8.92595 -3.54354 -9.07763
upperback 3.62004 -5.56812 -3.06423
thorax -0.651271 -2.86969 2.36709
lowerneck -8.7675 -6.41255 -10.7795
upperneck 15.795 -8.66645 8.52835
head 7.11375 -4.18665 3.7303
rclavicle -2.24627e-014 -1.11319e-014
rhumerus 217.495 -164.089 -220.482
rradius 30.3751
rwrist 37.554
rhand -43.0357 -4.80723
rfingers 7.12502
rthumb -15.8927 -34.1751
lclavicle -2.24627e-014 -1.11319e-014
lhumerus 70.959 -34.4431 43.8439
lradius 43.929
lwrist -20.7124
lhand -44.0648 29.7724
lfingers 7.12502
lthumb -16.8836 59.0585
rfemur -18.0186 26.3779 -2.83155
rtibia 24.3901
rfoot -3.74774 -27.936
rtoes -11.822
lfemur -4.42943 13.8791 -8.74517
ltibia 50.4983
lfoot -31.5044 11.8031
ltoes -15.3023
3653
root 1.64189 17.2111 -2.71385 -725.176 -37.5482 -722.01
lowerback 8.92369 -3.37192 -8.82669
upperback 3.62093 -5.32012 -3.05206
thorax -0.698619 -2.74239 2.22668
lowerneck -9.0126 -6.34316 -10.5896
upperneck 15.5936 -8.60304 8.77215
head 7.08703 -4.11887 3.77995
rclavicle -6.88789e-014 -1.11319e-014
rhumerus 216.44 -164.284 -219.777
rradius 30.7926
rwrist 37.3968
rhand -42.9335 -5.00239
rfingers 7.12502
rthumb -15.7943 -34.378
lclavicle -6.88789e-014 -1.11319e-014
lhumerus 70.8219 -34.7269 43.6806
lradius 44.4994
lwrist -21.0131
lhand -44.0201 29.839
lfingers 7.12502
lthumb -16.8406 59.1287
rfemur -17.9146 25.7266 -2.17484
rtibia 24.5206
rfoot -3.86512 -28.7946
rtoes -10.7939
lfemur -4.62619 13.8132 -8.91614
ltibia 50.2472
lfoot -31.4578 12.0322
ltoes -14.3478
